<svg width="84" height="48" viewBox="0 0 84 48" fill="none" xmlns="http://www.w3.org/2000/svg">
<path d="M22.4375 1.0625C24.8333 1.0625 27.2188 1.375 29.5938 2C31.9896 2.60417 34.1354 3.45833 36.0312 4.5625L33.125 11.3438C31.3333 10.4896 29.6771 9.875 28.1562 9.5C26.6562 9.10417 25.1354 8.90625 23.5938 8.90625C19.2812 8.90625 16 10.2083 13.75 12.8125C11.5208 15.4167 10.4062 19.1979 10.4062 24.1562C10.4062 29.1979 11.5208 33.0208 13.75 35.625C16 38.2083 19.2812 39.5 23.5938 39.5C26.9271 39.5 30.4062 38.7396 34.0312 37.2188L36.4062 44.375C31.7188 46.4583 27.0208 47.5 22.3125 47.5C15.2292 47.5 9.80208 45.5104 6.03125 41.5312C2.26042 37.5312 0.375 31.8021 0.375 24.3438C0.375 19.5312 1.25 15.375 3 11.875C4.75 8.375 7.27083 5.69792 10.5625 3.84375C13.875 1.98958 17.8333 1.0625 22.4375 1.0625ZM61.5 0.96875C68.5417 0.96875 73.9271 2.96875 77.6562 6.96875C81.3854 10.9479 83.25 16.6562 83.25 24.0938C83.25 31.6979 81.3958 37.5104 77.6875 41.5312C73.9792 45.5521 68.5833 47.5625 61.5 47.5625C54.375 47.5625 48.9688 45.5625 45.2812 41.5625C41.5938 37.5417 39.75 31.7188 39.75 24.0938C39.75 16.6771 41.6146 10.9688 45.3438 6.96875C49.0729 2.96875 54.4583 0.96875 61.5 0.96875ZM61.5 8.65625C57.625 8.65625 54.7083 9.95833 52.75 12.5625C50.8125 15.1667 49.8438 19.0104 49.8438 24.0938C49.8438 29.2604 50.8229 33.1875 52.7812 35.875C54.7604 38.5625 57.6667 39.9062 61.5 39.9062C65.3333 39.9062 68.2292 38.5625 70.1875 35.875C72.1667 33.1875 73.1562 29.2604 73.1562 24.0938C73.1562 19.0521 72.1667 15.2188 70.1875 12.5938C68.2292 9.96875 65.3333 8.65625 61.5 8.65625Z" fill="#40916C"/>
</svg>
