<svg width="394" height="65" viewBox="0 0 394 65" fill="none" xmlns="http://www.w3.org/2000/svg">
<path d="M22.4375 3.0625C24.8333 3.0625 27.2188 3.375 29.5938 4C31.9896 4.60417 34.1354 5.45833 36.0312 6.5625L33.125 13.3438C31.3333 12.4896 29.6771 11.875 28.1562 11.5C26.6562 11.1042 25.1354 10.9062 23.5938 10.9062C19.2812 10.9062 16 12.2083 13.75 14.8125C11.5208 17.4167 10.4062 21.1979 10.4062 26.1562C10.4062 31.1979 11.5208 35.0208 13.75 37.625C16 40.2083 19.2812 41.5 23.5938 41.5C26.9271 41.5 30.4062 40.7396 34.0312 39.2188L36.4062 46.375C31.7188 48.4583 27.0208 49.5 22.3125 49.5C15.2292 49.5 9.80208 47.5104 6.03125 43.5312C2.26042 39.5312 0.375 33.8021 0.375 26.3438C0.375 21.5312 1.25 17.375 3 13.875C4.75 10.375 7.27083 7.69792 10.5625 5.84375C13.875 3.98958 17.8333 3.0625 22.4375 3.0625ZM61.5 2.96875C68.5417 2.96875 73.9271 4.96875 77.6562 8.96875C81.3854 12.9479 83.25 18.6562 83.25 26.0938C83.25 33.6979 81.3958 39.5104 77.6875 43.5312C73.9792 47.5521 68.5833 49.5625 61.5 49.5625C54.375 49.5625 48.9688 47.5625 45.2812 43.5625C41.5938 39.5417 39.75 33.7188 39.75 26.0938C39.75 18.6771 41.6146 12.9688 45.3438 8.96875C49.0729 4.96875 54.4583 2.96875 61.5 2.96875ZM61.5 10.6562C57.625 10.6562 54.7083 11.9583 52.75 14.5625C50.8125 17.1667 49.8438 21.0104 49.8438 26.0938C49.8438 31.2604 50.8229 35.1875 52.7812 37.875C54.7604 40.5625 57.6667 41.9062 61.5 41.9062C65.3333 41.9062 68.2292 40.5625 70.1875 37.875C72.1667 35.1875 73.1562 31.2604 73.1562 26.0938C73.1562 21.0521 72.1667 17.2188 70.1875 14.5938C68.2292 11.9688 65.3333 10.6562 61.5 10.6562ZM96.375 20.7188C97.9583 18.9688 99.6979 17.6667 101.594 16.8125C103.49 15.9583 105.615 15.5312 107.969 15.5312C111.469 15.5312 114.146 16.5417 116 18.5625C117.854 20.5833 118.781 23.5208 118.781 27.375V49H112.75V27.8125C112.75 25.375 112.25 23.6042 111.25 22.5C110.25 21.3958 108.646 20.8438 106.438 20.8438C104.479 20.8438 102.646 21.2812 100.938 22.1562C99.2292 23.0312 97.8542 24.2396 96.8125 25.7812V49H90.8125V16.0938H95.6875L96.375 20.7188ZM129.969 11.6875C129.969 8.1875 130.885 5.47917 132.719 3.5625C134.552 1.64583 137.135 0.6875 140.469 0.6875C141.74 0.6875 142.969 0.8125 144.156 1.0625C145.365 1.3125 146.823 1.78125 148.531 2.46875L146.344 7.15625C144.135 6.42708 142.323 6.0625 140.906 6.0625C139.323 6.0625 138.104 6.52083 137.25 7.4375C136.417 8.35417 136 9.625 136 11.25V16.0938H145.344V21.2812H136V46.875C136 49.0833 135.833 51.1042 135.5 52.9375C135.188 54.7917 134.667 56.7396 133.938 58.7812H129.969V21.2812H124.219V16.0938H129.969V11.6875ZM150.875 3.9375H156.875V10.0938H150.875V3.9375ZM150.875 16.0938H156.875V49H150.875V16.0938ZM181.312 15.8438C182.771 15.8438 184.167 16.0521 185.5 16.4688C186.854 16.8646 188.042 17.4271 189.062 18.1562L189.781 16.0938H194.75V49.9062C194.75 54.3021 193.344 57.7604 190.531 60.2812C187.719 62.8229 183.885 64.0938 179.031 64.0938C176.594 64.0938 174.229 63.7917 171.938 63.1875C169.667 62.6042 167.656 61.7812 165.906 60.7188L168.156 55.9062C169.698 56.7604 171.5 57.4479 173.562 57.9688C175.625 58.5104 177.573 58.7812 179.406 58.7812C182.385 58.7812 184.688 58.0208 186.312 56.5C187.938 55 188.75 52.8438 188.75 50.0312V45.2812C186.146 48.0938 183.01 49.5 179.344 49.5C174.74 49.5 171.177 48.0729 168.656 45.2188C166.135 42.3646 164.875 38.3125 164.875 33.0625C164.875 27.6042 166.302 23.375 169.156 20.375C172.01 17.3542 176.062 15.8438 181.312 15.8438ZM181.656 20.8438C178.365 20.8438 175.771 21.9375 173.875 24.125C171.979 26.2917 171.031 29.2708 171.031 33.0625C171.031 36.6042 171.781 39.3438 173.281 41.2812C174.802 43.2188 176.948 44.1875 179.719 44.1875C181.844 44.1875 183.708 43.6042 185.312 42.4375C186.917 41.2708 188.062 39.6562 188.75 37.5938V22.75C187.771 22.1458 186.646 21.6771 185.375 21.3438C184.125 21.0104 182.885 20.8438 181.656 20.8438ZM210.625 37.3438C210.625 39.7396 211.125 41.4896 212.125 42.5938C213.125 43.6979 214.74 44.25 216.969 44.25C218.844 44.25 220.635 43.8125 222.344 42.9375C224.052 42.0625 225.458 40.8854 226.562 39.4062V16.0938H232.562V49H227.719L226.938 44.4688C224.042 47.8854 220.333 49.5833 215.812 49.5625C212.146 49.5625 209.354 48.5625 207.438 46.5625C205.542 44.5625 204.594 41.6458 204.594 37.8125V16.0938H210.625V37.3438ZM248.625 20.7188C249.771 19.0104 251.115 17.7188 252.656 16.8438C254.198 15.9688 255.885 15.5312 257.719 15.5312C258.948 15.5312 260.375 15.7604 262 16.2188L260.906 22.125C258.823 21.7083 257.417 21.4896 256.688 21.4688C254.854 21.4688 253.333 21.8125 252.125 22.5C250.938 23.1875 249.917 24.3021 249.062 25.8438V49H243.062V16.0938H247.875L248.625 20.7188ZM278.5 15.5938C282.604 15.5938 285.76 16.6771 287.969 18.8438C290.198 20.9896 291.312 24.0625 291.312 28.0625V49H286.688L285.812 45.1562C282.604 48.1354 279 49.625 275 49.625C271.708 49.625 269.094 48.7396 267.156 46.9688C265.219 45.1979 264.25 42.8229 264.25 39.8438C264.25 36.3854 265.667 33.6875 268.5 31.75C271.333 29.8125 275.312 28.8438 280.438 28.8438H285.281V27.9375C285.115 23.25 282.708 20.9062 278.062 20.9062C276.646 20.9062 275.052 21.125 273.281 21.5625C271.51 21.9792 269.729 22.5521 267.938 23.2812L266.281 18.4062C268.198 17.5104 270.219 16.8229 272.344 16.3438C274.49 15.8438 276.542 15.5938 278.5 15.5938ZM280.812 33.4375C277.479 33.4375 274.885 33.9896 273.031 35.0938C271.177 36.1771 270.25 37.6979 270.25 39.6562C270.25 41.1562 270.76 42.3125 271.781 43.125C272.802 43.9167 274.229 44.3125 276.062 44.3125C277.812 44.3125 279.521 43.9479 281.188 43.2188C282.854 42.4688 284.219 41.4688 285.281 40.2188V33.4375H280.812ZM322.75 44.8438C321.333 46.4688 319.823 47.6562 318.219 48.4062C316.635 49.1354 314.885 49.5 312.969 49.5C308.365 49.5 304.802 48.0729 302.281 45.2188C299.76 42.3646 298.5 38.3125 298.5 33.0625C298.5 27.6042 299.99 23.3229 302.969 20.2188C305.969 17.0938 310.115 15.5312 315.406 15.5312C317.323 15.5312 319.646 15.8333 322.375 16.4375V1H328.375V48.9375H323.594L322.75 44.8438ZM313.344 44.1875C315.448 44.1875 317.281 43.625 318.844 42.5C320.427 41.375 321.604 39.7917 322.375 37.75V21.8125C320.667 21.3958 319.385 21.1354 318.531 21.0312C317.677 20.9062 316.656 20.8438 315.469 20.8438C312.052 20.8438 309.396 21.9271 307.5 24.0938C305.604 26.2396 304.656 29.2292 304.656 33.0625C304.656 36.6042 305.406 39.3438 306.906 41.2812C308.427 43.2188 310.573 44.1875 313.344 44.1875ZM351.312 15.4688C356.25 15.4688 360.083 16.9688 362.812 19.9688C365.542 22.9479 366.906 27.125 366.906 32.5C366.906 37.875 365.542 42.0521 362.812 45.0312C360.083 48.0104 356.25 49.5 351.312 49.5C346.354 49.5 342.51 48.0104 339.781 45.0312C337.052 42.0521 335.688 37.875 335.688 32.5C335.688 27.125 337.052 22.9479 339.781 19.9688C342.51 16.9688 346.354 15.4688 351.312 15.4688ZM351.312 20.7812C348.229 20.7812 345.875 21.7812 344.25 23.7812C342.646 25.7812 341.844 28.6875 341.844 32.5C341.844 36.2917 342.646 39.1875 344.25 41.1875C345.875 43.1875 348.229 44.1875 351.312 44.1875C354.375 44.1875 356.719 43.1875 358.344 41.1875C359.969 39.1875 360.781 36.2917 360.781 32.5C360.781 28.7083 359.969 25.8125 358.344 23.8125C356.719 21.7917 354.375 20.7812 351.312 20.7812ZM380.5 20.7188C381.646 19.0104 382.99 17.7188 384.531 16.8438C386.073 15.9688 387.76 15.5312 389.594 15.5312C390.823 15.5312 392.25 15.7604 393.875 16.2188L392.781 22.125C390.698 21.7083 389.292 21.4896 388.562 21.4688C386.729 21.4688 385.208 21.8125 384 22.5C382.812 23.1875 381.792 24.3021 380.938 25.8438V49H374.938V16.0938H379.75L380.5 20.7188Z" fill="#40916C"/>
</svg>
